<svg width="18" height="18" viewBox="0 0 18 18" fill="none" xmlns="http://www.w3.org/2000/svg">
<path d="M10.5639 1.3011L12.1502 4.49508C12.364 4.93681 12.9378 5.35588 13.4216 5.44649L16.2905 5.92219C18.1244 6.22799 18.5519 7.56448 17.2356 8.90097L14.9967 11.1549C14.6254 11.5286 14.4116 12.2649 14.5354 12.7972L15.1767 15.5834C15.683 17.7807 14.5129 18.6415 12.589 17.4862L9.90006 15.8779C9.41628 15.5834 8.60622 15.5834 8.12244 15.8779L5.43351 17.4862C3.50963 18.6302 2.33955 17.7807 2.84583 15.5834L3.48712 12.7972C3.58838 12.2535 3.37462 11.5173 3.00334 11.1436L0.764438 8.88965C-0.551902 7.56448 -0.124373 6.22799 1.7095 5.91086L4.57845 5.43516C5.06223 5.35588 5.63602 4.92548 5.84979 4.48376L7.43614 1.28977C8.30245 -0.431808 9.69755 -0.431807 10.5639 1.3011Z" fill="white"/>
</svg>
